<svg width="87" height="94" viewBox="0 0 87 94" fill="none" xmlns="http://www.w3.org/2000/svg">
<rect x="3.30359" y="2.74887" width="80.6521" height="88.4003" rx="12.5" stroke="white" stroke-width="5"/>
<line x1="2.15455" y1="20.5045" x2="83.6749" y2="20.5045" stroke="white" stroke-width="4"/>
<ellipse cx="17.4636" cy="12.6047" rx="3.83247" ry="3.7331" transform="rotate(-180 17.4636 12.6047)" fill="white"/>
<ellipse cx="28.2058" cy="12.6047" rx="3.83247" ry="3.7331" transform="rotate(-180 28.2058 12.6047)" fill="white"/>
<ellipse cx="39.1243" cy="12.6047" rx="3.83247" ry="3.7331" transform="rotate(-180 39.1243 12.6047)" fill="white"/>
<path d="M14.7505 63.999C16.6805 42.3524 24.2797 35.912 49.3245 34.5443" stroke="white" stroke-width="5"/>
<path d="M56.9515 34.2376C56.9515 36.8791 54.7532 39.0204 52.0414 39.0204C49.3296 39.0204 47.1312 36.8791 47.1312 34.2376C47.1312 31.5961 49.3296 29.4548 52.0414 29.4548C54.7532 29.4548 56.9515 31.5961 56.9515 34.2376Z" fill="white"/>
<path d="M19.3992 66.7172C19.3992 69.3587 17.2009 71.5 14.4891 71.5C11.7773 71.5 9.57895 69.3587 9.57895 66.7172C9.57895 64.0758 11.7773 61.9344 14.4891 61.9344C17.2009 61.9344 19.3992 64.0758 19.3992 66.7172Z" fill="white"/>
<path d="M60.8133 83.7874L69.9306 75.7191C70.3503 75.3479 70.3814 74.7154 70.0002 74.3067L65.7285 69.7266C65.3472 69.3179 64.6981 69.2876 64.2784 69.6589L63.813 70.0708L58.508 58.3658C58.4065 58.1418 58.224 57.9618 57.9954 57.8601L37.891 48.9163L37.8822 48.9124C37.8565 48.901 37.8303 48.8909 37.804 48.8816C37.7469 48.8616 37.6803 48.8448 37.6166 48.835C37.3423 48.7927 37.0753 48.8591 36.8615 49.0075L36.8568 49.0107C36.8504 49.0151 36.844 49.0195 36.8377 49.0242C36.5296 49.2508 36.3884 49.6141 36.4396 49.9633C36.4433 49.9891 36.4488 50.0146 36.4547 50.0402C36.4552 50.0426 36.4557 50.0451 36.4561 50.0475C36.4566 50.0505 36.4572 50.0534 36.4579 50.0563C36.4663 50.0905 36.4766 50.1243 36.4888 50.1576L43.7049 70.5064C43.787 70.7379 43.9534 70.932 44.1727 71.0519L55.6266 77.3154L55.1611 77.7274C54.9513 77.913 54.8386 78.164 54.826 78.4195C54.8134 78.675 54.9009 78.9354 55.0916 79.1397L59.3633 83.7198C59.7444 84.1284 60.3936 84.1588 60.8133 83.7874ZM45.518 69.4942L40.0588 54.0999L48.4102 63.0541C48.1984 63.4363 48.0688 63.8691 48.0461 64.3311C47.9647 65.9832 49.2785 67.3917 50.9746 67.471C52.6707 67.5502 54.1167 66.2705 54.198 64.6184C54.2793 62.9663 52.9656 61.5577 51.2695 61.4785C50.7953 61.4563 50.3405 61.5406 49.9298 61.7094L41.5783 52.7551L56.7876 59.5212L62.2113 71.4883L57.2283 75.8979L45.518 69.4942ZM51.1712 63.476C51.7366 63.5024 52.1745 63.9719 52.1474 64.5226C52.1203 65.0733 51.6382 65.4999 51.0729 65.4735C50.5075 65.4471 50.0696 64.9775 50.0967 64.4268C50.1238 63.8761 50.6058 63.4496 51.1712 63.476ZM57.3014 78.535L58.075 77.8505L58.0769 77.8488L64.1236 72.4978L64.126 72.4957L64.8991 71.8115L67.7903 74.9113L60.1925 81.6349L57.3014 78.535Z" fill="white"/>
<path d="M60.8133 83.7874L69.9306 75.7191C70.3503 75.3479 70.3814 74.7154 70.0002 74.3067L65.7285 69.7266C65.3472 69.3179 64.6981 69.2876 64.2784 69.6589L63.813 70.0708L58.508 58.3658C58.4065 58.1418 58.224 57.9618 57.9954 57.8601L37.891 48.9163L37.8822 48.9124C37.8565 48.901 37.8303 48.8909 37.804 48.8816C37.7469 48.8616 37.6803 48.8448 37.6166 48.835C37.3423 48.7927 37.0753 48.8591 36.8615 49.0075L36.8568 49.0107C36.8504 49.0151 36.844 49.0195 36.8377 49.0242C36.5296 49.2508 36.3884 49.6141 36.4396 49.9633C36.4433 49.9891 36.4488 50.0146 36.4547 50.0402C36.4552 50.0426 36.4557 50.0451 36.4561 50.0475C36.4566 50.0505 36.4572 50.0534 36.4579 50.0563C36.4663 50.0905 36.4766 50.1243 36.4888 50.1576L43.7049 70.5064C43.787 70.7379 43.9534 70.932 44.1727 71.0519L55.6266 77.3154L55.1611 77.7274C54.9513 77.913 54.8386 78.164 54.826 78.4195C54.8134 78.675 54.9009 78.9354 55.0916 79.1397L59.3633 83.7198C59.7444 84.1284 60.3936 84.1588 60.8133 83.7874ZM45.518 69.4942L40.0588 54.0999L48.4102 63.0541C48.1984 63.4363 48.0688 63.8691 48.0461 64.3311C47.9647 65.9832 49.2785 67.3917 50.9746 67.471C52.6707 67.5502 54.1167 66.2705 54.198 64.6184C54.2793 62.9663 52.9656 61.5577 51.2695 61.4785C50.7953 61.4563 50.3405 61.5406 49.9298 61.7094L41.5783 52.7551L56.7876 59.5212L62.2113 71.4883L57.2283 75.8979L45.518 69.4942ZM51.1712 63.476C51.7366 63.5024 52.1745 63.9719 52.1474 64.5226C52.1203 65.0733 51.6382 65.4999 51.0729 65.4735C50.5075 65.4471 50.0696 64.9775 50.0967 64.4268C50.1238 63.8761 50.6058 63.4496 51.1712 63.476ZM57.3014 78.535L58.075 77.8505L58.0769 77.8488L64.1236 72.4978L64.126 72.4957L64.8991 71.8115L67.7903 74.9113L60.1925 81.6349L57.3014 78.535Z" stroke="white"/>
</svg>
